<svg width="8" height="7" viewBox="0 0 8 7" fill="none" xmlns="http://www.w3.org/2000/svg">
<path d="M2.13324 6.42186C3.37651 6.42186 4.16601 5.791 4.16601 4.78752C4.16601 4.01278 3.70854 3.56639 2.59071 3.33028L2.01149 3.20853C1.32161 3.06096 1.04492 2.80271 1.04492 2.41534C1.04492 1.92837 1.50607 1.62585 2.12955 1.62585C2.6608 1.62585 3.06662 1.83613 3.24739 2.3268C3.33224 2.51864 3.45399 2.61087 3.65321 2.61087C3.86718 2.61087 4.01844 2.47068 4.01844 2.25671C4.01844 2.17923 4.00737 2.11652 3.98893 2.06487C3.78233 1.35284 3.05924 0.921204 2.14062 0.921204C1.00802 0.921204 0.207458 1.54837 0.207458 2.45962C0.207458 3.22698 0.690748 3.72133 1.75325 3.94638L2.33615 4.06812C3.04817 4.22307 3.32855 4.48132 3.32855 4.89451C3.32855 5.37042 2.84526 5.71721 2.17013 5.71721C1.55403 5.71721 1.07074 5.48479 0.904724 4.98674C0.823561 4.78752 0.701816 4.70267 0.513665 4.70267C0.288622 4.70267 0.141052 4.85762 0.141052 5.09742C0.141052 5.18596 0.159498 5.2745 0.185323 5.35567C0.39192 5.97546 1.10025 6.42186 2.13324 6.42186Z" fill="white"/>
<path d="M6.01438 6.42186C7.05105 6.42186 7.67084 5.80944 7.67084 4.75432V1.37867C7.67084 1.11304 7.51221 0.950718 7.25765 0.950718C6.9994 0.950718 6.84445 1.11304 6.84445 1.37867V4.75063C6.84445 5.35567 6.54931 5.68401 6.007 5.68401C5.60487 5.68401 5.3208 5.45528 5.20643 5.04208C5.14003 4.79859 5.01459 4.6916 4.80431 4.6916C4.56819 4.6916 4.41694 4.84655 4.41694 5.09742C4.41694 5.24499 4.44645 5.35198 4.49441 5.48479C4.71207 6.064 5.2876 6.42186 6.01438 6.42186Z" fill="white"/>
</svg>
