<svg width="32" height="33" viewBox="0 0 32 33" fill="none" xmlns="http://www.w3.org/2000/svg">
<path d="M12 13.8333H2.66666C2.31304 13.8333 1.9739 13.6929 1.72385 13.4428C1.4738 13.1928 1.33333 12.8536 1.33333 12.5V3.16668C1.33333 2.81305 1.4738 2.47392 1.72385 2.22387C1.9739 1.97382 2.31304 1.83334 2.66666 1.83334H12C12.3536 1.83334 12.6928 1.97382 12.9428 2.22387C13.1929 2.47392 13.3333 2.81305 13.3333 3.16668V12.5C13.3333 12.8536 13.1929 13.1928 12.9428 13.4428C12.6928 13.6929 12.3536 13.8333 12 13.8333Z" fill="#1DB5BE"/>
<path d="M12 31.1667H2.66666C2.31304 31.1667 1.9739 31.0262 1.72385 30.7762C1.4738 30.5261 1.33333 30.187 1.33333 29.8334V20.5C1.33333 20.1464 1.4738 19.8073 1.72385 19.5572C1.9739 19.3072 2.31304 19.1667 2.66666 19.1667H12C12.3536 19.1667 12.6928 19.3072 12.9428 19.5572C13.1929 19.8073 13.3333 20.1464 13.3333 20.5V29.8334C13.3333 30.187 13.1929 30.5261 12.9428 30.7762C12.6928 31.0262 12.3536 31.1667 12 31.1667Z" fill="#1DB5BE"/>
<path d="M17.3333 3.16669H30.6666V5.83335H17.3333V3.16669Z" fill="#75E3EA"/>
<path d="M30.6666 20.5H17.3333V23.1667H30.6666V20.5Z" fill="#75E3EA"/>
<path d="M30.6666 27.1667H17.3333V29.8333H30.6666V27.1667Z" fill="#FFF176"/>
<path d="M30.6666 9.83334H17.3333V12.5H30.6666V9.83334Z" fill="#FFF176"/>
</svg>
