<svg width="32" height="33" viewBox="0 0 32 33" fill="none" xmlns="http://www.w3.org/2000/svg">
<path d="M6.66667 1.83334H2.66667C2.31304 1.83334 1.9739 1.97382 1.72386 2.22387C1.47381 2.47392 1.33333 2.81305 1.33333 3.16668V29.8333C1.33333 30.187 1.47381 30.5261 1.72386 30.7762C1.9739 31.0262 2.31304 31.1667 2.66667 31.1667H6.66667V1.83334Z" fill="#FFF176"/>
<path d="M9.33333 31.1667H22.6667V1.83334H9.33333V31.1667ZM16 25.8333C15.6464 25.8333 15.3072 25.6929 15.0572 25.4428C14.8071 25.1928 14.6667 24.8536 14.6667 24.5C14.6667 24.1464 14.8071 23.8072 15.0572 23.5572C15.3072 23.3071 15.6464 23.1667 16 23.1667C16.3536 23.1667 16.6928 23.3071 16.9428 23.5572C17.1929 23.8072 17.3333 24.1464 17.3333 24.5C17.3333 24.8536 17.1929 25.1928 16.9428 25.4428C16.6928 25.6929 16.3536 25.8333 16 25.8333ZM16 7.16668C16.3536 7.16668 16.6928 7.30715 16.9428 7.5572C17.1929 7.80725 17.3333 8.14639 17.3333 8.50001C17.3333 8.85363 17.1929 9.19277 16.9428 9.44282C16.6928 9.69287 16.3536 9.83334 16 9.83334C15.6464 9.83334 15.3072 9.69287 15.0572 9.44282C14.8071 9.19277 14.6667 8.85363 14.6667 8.50001C14.6667 8.14639 14.8071 7.80725 15.0572 7.5572C15.3072 7.30715 15.6464 7.16668 16 7.16668ZM16 15.1667C16.3536 15.1667 16.6928 15.3072 16.9428 15.5572C17.1929 15.8072 17.3333 16.1464 17.3333 16.5C17.3333 16.8536 17.1929 17.1928 16.9428 17.4428C16.6928 17.6929 16.3536 17.8333 16 17.8333C15.6464 17.8333 15.3072 17.6929 15.0572 17.4428C14.8071 17.1928 14.6667 16.8536 14.6667 16.5C14.6667 16.1464 14.8071 15.8072 15.0572 15.5572C15.3072 15.3072 15.6464 15.1667 16 15.1667Z" fill="#1DB5BE"/>
<path d="M29.3333 1.83334H25.3333V31.1667H29.3333C29.687 31.1667 30.0261 31.0262 30.2761 30.7762C30.5262 30.5261 30.6667 30.187 30.6667 29.8333V3.16668C30.6667 2.81305 30.5262 2.47392 30.2761 2.22387C30.0261 1.97382 29.687 1.83334 29.3333 1.83334Z" fill="#75E3EA"/>
</svg>
