<svg width="32" height="33" viewBox="0 0 32 33" fill="none" xmlns="http://www.w3.org/2000/svg">
<g clip-path="url(#clip0_33_4195)">
<path d="M28 32.5H16C15.6464 32.5 15.3073 32.3595 15.0572 32.1095C14.8072 31.8594 14.6667 31.5203 14.6667 31.1667V28.5C14.6667 28.1464 14.8072 27.8072 15.0572 27.5572C15.3073 27.3071 15.6464 27.1667 16 27.1667H28C28.3536 27.1667 28.6928 27.3071 28.9428 27.5572C29.1929 27.8072 29.3334 28.1464 29.3334 28.5V31.1667C29.3334 31.5203 29.1929 31.8594 28.9428 32.1095C28.6928 32.3595 28.3536 32.5 28 32.5Z" fill="#FFF176"/>
<path d="M28 0.5H4.00001C3.64638 0.5 3.30724 0.640475 3.0572 0.890523C2.80715 1.14057 2.66667 1.47971 2.66667 1.83333V4.5C2.66667 4.85362 2.80715 5.19276 3.0572 5.44281C3.30724 5.69286 3.64638 5.83333 4.00001 5.83333H28C28.3536 5.83333 28.6928 5.69286 28.9428 5.44281C29.1929 5.19276 29.3333 4.85362 29.3333 4.5V1.83333C29.3333 1.47971 29.1929 1.14057 28.9428 0.890523C28.6928 0.640475 28.3536 0.5 28 0.5Z" fill="#75E3EA"/>
<path d="M28 8.5H4.00001C3.64638 8.5 3.30724 8.64047 3.0572 8.89052C2.80715 9.14057 2.66667 9.47971 2.66667 9.83333V23.1667C2.66667 23.5203 2.80715 23.8594 3.0572 24.1095C3.30724 24.3595 3.64638 24.5 4.00001 24.5H28C28.3536 24.5 28.6928 24.3595 28.9428 24.1095C29.1929 23.8594 29.3333 23.5203 29.3333 23.1667V9.83333C29.3333 9.47971 29.1929 9.14057 28.9428 8.89052C28.6928 8.64047 28.3536 8.5 28 8.5Z" fill="#1DB5BE"/>
</g>
<defs>
<clipPath id="clip0_33_4195">
<rect width="32" height="32" fill="white" transform="translate(0 0.5)"/>
</clipPath>
</defs>
</svg>
