<svg width="50" height="50" viewBox="0 0 50 50" fill="none" xmlns="http://www.w3.org/2000/svg">
<path opacity="0.33" fill-rule="evenodd" clip-rule="evenodd" d="M25 50C38.8071 50 50 38.8071 50 25C50 11.1929 38.8071 0 25 0C11.1929 0 0 11.1929 0 25C0 38.8071 11.1929 50 25 50Z" fill="#5F5858" fill-opacity="0.5"/>
<path fill-rule="evenodd" clip-rule="evenodd" d="M25.9986 27.3335C25.9986 27.8855 25.5516 28.3325 24.9996 28.3325C24.4476 28.3325 24.0006 27.8855 24.0006 27.3335C24.0006 26.7815 24.4476 26.3345 24.9996 26.3345C25.5516 26.3345 25.9986 26.7815 25.9986 27.3335ZM23.3296 24.6885V27.3125C23.3296 28.2345 24.0776 28.9815 24.9996 28.9815C25.9216 28.9815 26.6696 28.2345 26.6696 27.3125V24.6885C26.6696 23.7655 25.9216 23.0185 24.9996 23.0185C24.0776 23.0185 23.3296 23.7655 23.3296 24.6885ZM25.2506 15.6665H30.0006C30.0006 16.9345 29.9996 17.9285 28.7496 19.6675C27.7606 21.0435 27.6666 21.6365 27.6666 23.1665V34.9165V36.9175V37.1665C27.6666 37.9955 26.9956 38.6665 26.1666 38.6665H23.8336C23.0046 38.6665 22.3336 37.9955 22.3336 37.1665V36.9175V34.9165V23.1665C22.3336 21.6365 22.2396 21.0435 21.2496 19.6675C20.0006 17.9285 19.9996 16.9345 19.9996 15.6665H24.7506H25.2506ZM19.9996 13.5005C19.9996 13.2245 20.2236 13.0005 20.4996 13.0005H29.5006C29.7766 13.0005 30.0006 13.2245 30.0006 13.5005V14.6665H19.9996V13.5005Z" fill="white"/>
</svg>
