<svg width="26" height="26" viewBox="0 0 26 26" fill="none" xmlns="http://www.w3.org/2000/svg">
<path d="M17 13C17 15.2091 15.2091 17 13 17C10.7909 17 9 15.2091 9 13C9 10.7909 10.7909 9.00001 13 9.00001C15.2091 9.00001 17 10.7909 17 13Z" stroke="#14142B" stroke-width="2"/>
<path d="M11.2844 2.86293C12.061 1.56697 13.939 1.56697 14.7156 2.86294L15.4213 4.0407C15.8742 4.7965 16.7684 5.16687 17.6231 4.95269L18.9549 4.61893C20.4204 4.25167 21.7483 5.57959 21.3811 7.0451L21.0473 8.37696C20.8331 9.23163 21.2035 10.1258 21.9593 10.5787L23.1371 11.2844C24.433 12.061 24.433 13.939 23.1371 14.7156L21.9593 15.4213C21.2035 15.8742 20.8331 16.7684 21.0473 17.6231L21.3811 18.9549C21.7483 20.4204 20.4204 21.7483 18.9549 21.3811L17.623 21.0473C16.7684 20.8331 15.8742 21.2035 15.4213 21.9593L14.7156 23.1371C13.939 24.433 12.061 24.433 11.2844 23.1371L10.5787 21.9593C10.1258 21.2035 9.23162 20.8331 8.37695 21.0473L7.04509 21.3811C5.57958 21.7483 4.25166 20.4204 4.61892 18.9549L4.95268 17.6231C5.16686 16.7684 4.79649 15.8742 4.04069 15.4213L2.86293 14.7156C1.56696 13.939 1.56696 12.061 2.86293 11.2844L4.0407 10.5787C4.79649 10.1258 5.16686 9.23163 4.95268 8.37696L4.61892 7.0451C4.25166 5.57958 5.57958 4.25167 7.0451 4.61893L8.37695 4.95269C9.23162 5.16687 10.1258 4.7965 10.5787 4.0407L11.2844 2.86293Z" stroke="#14142B" stroke-width="2"/>
</svg>
