<svg width="20" height="17" viewBox="0 0 20 17" fill="none" xmlns="http://www.w3.org/2000/svg">
<path d="M18.8 10.6643H14.603V14.6334C14.603 14.7134 14.603 14.7867 14.603 14.8634C14.603 14.93 14.603 14.9933 14.6003 15.06C14.5984 15.2029 14.5861 15.3455 14.5633 15.4865C14.5385 15.6267 14.4936 15.7625 14.43 15.8898C14.3649 16.0169 14.2798 16.1328 14.1781 16.233C14.0758 16.3332 13.9591 16.4175 13.8318 16.483C13.7029 16.5458 13.566 16.5906 13.4249 16.6163C13.2834 16.6385 13.1405 16.6507 12.9973 16.653C12.9307 16.653 12.866 16.6563 12.8007 16.6563H7.40159C7.33494 16.6563 7.27062 16.653 7.20497 16.653C7.06176 16.6507 6.91889 16.6385 6.7774 16.6163C6.63643 16.5906 6.49964 16.5457 6.37082 16.483C6.24353 16.4175 6.12681 16.3332 6.02457 16.233C5.92274 16.1329 5.83767 16.017 5.77262 15.8898C5.70902 15.7625 5.66412 15.6267 5.63932 15.4865C5.61639 15.3455 5.60392 15.2029 5.602 15.06C5.602 14.9933 5.59933 14.93 5.59933 14.8634C5.59933 14.7867 5.59933 14.7134 5.59933 14.6334V10.6643H1.33596C0.904727 10.6643 0.351519 9.73452 0.869402 9.21797C1.30964 8.7814 8.22873 1.88296 9.67674 0.446623C9.78314 0.315861 9.93344 0.228218 10.0996 0.200012H10.111C10.2548 0.20781 10.3883 0.276993 10.4776 0.389969C11.9256 1.82631 18.8683 8.7814 19.3089 9.21797C19.8271 9.73452 19.3932 10.6643 18.8 10.6643Z" fill="black"/>
</svg>
